<svg height="480pt" viewBox="0 -56 480.00043 480" width="480pt" xmlns="http://www.w3.org/2000/svg"><path d="m430.398438 48.9375c-.597657-.601562-1.109376-1.25-1.71875-1.832031-2.398438-2.335938-5.007813-4.417969-7.542969-6.59375-1-.855469-1.953125-1.757813-2.96875-2.589844-3.335938-2.738281-6.792969-5.257813-10.296875-7.707031-.910156-.628906-1.78125-1.3125-2.710938-1.925782-3.726562-2.496093-7.558594-4.800781-11.457031-6.96875-.800781-.449218-1.597656-.9375-2.398437-1.375-4-2.144531-8.066407-4.082031-12.199219-5.890624-.890625-.382813-1.753907-.796876-2.640625-1.167969-4.058594-1.6875-8.167969-3.199219-12.34375-4.527344-1.152344-.375-2.296875-.800781-3.457032-1.128906-3.910156-1.175781-7.878906-2.167969-11.878906-3.054688-1.601562-.359375-3.152344-.726562-4.753906-1.039062-3.632812-.695313-7.289062-1.222657-10.976562-1.679688-2.085938-.257812-4.160157-.527343-6.269532-.710937-3.273437-.28125-6.570312-.410156-9.882812-.496094-1.703125-.050781-3.261719-.25-4.902344-.25h-128c-22.082031.0273438-39.972656 17.917969-40 40v128c0 .265625.128906.496094.152344.753906 0 1.039063-.152344 2.046875-.152344 3.078125v80.855469l-21.65625 21.65625c-1.5 1.5-2.34375 3.535156-2.34375 5.65625h-95c-13.800781.019531-24.9804688 11.199219-25 25v55c0 4.417969 3.582031 8 8 8s8-3.582031 8-8v-32h104c0 4.417969 3.582031 8 8 8h320.367188c7.96875.003906 15.414062-3.949219 19.882812-10.542969 4.464844-6.597656 5.367188-14.980469 2.40625-22.375-3.898438-9.679687-3.898438-20.492187 0-30.167969 6.1875-15.4375 9.359375-31.917968 9.34375-48.546874v-56.367188c.097656-43.703125-16.996094-85.695312-47.59375-116.902344-.695312-.699218-1.328125-1.496094-2.007812-2.160156zm-118.398438 23.0625c53.019531 0 96 42.980469 96 96s-42.980469 96-96 96-96-42.980469-96-96c.058594-52.996094 43.003906-95.941406 96-96zm-152-32c0-13.253906 10.746094-24 24-24h56.472656c-35.320312 16.71875-63.753906 45.15625-80.472656 80.472656zm-144 272v-7c.007812-4.964844 4.03125-8.992188 9-9h95v16zm120-24v-4.6875l21.65625-21.65625c1.5-1.5 2.34375-3.535156 2.34375-5.65625v-84.167969c-.027344-70.984375 47.679688-133.113281 116.265625-151.414062.390625-.097657.796875-.210938 1.167969-.296875 3.421875-.800782 6.925781-1.433594 10.398437-2.015625 1.945313-.3125 3.871094-.65625 5.839844-.898438 2.535156-.3125 5.105469-.488281 7.671875-.671875.871094-.054687 1.753906-.085937 2.625-.125v40c-48.753906 3.421875-89.632812 38.113282-100.941406 85.660156-11.304688 47.550782 9.585937 96.929688 51.582031 121.929688h-70.609375c-4.417969 0-8 3.582031-8 8v48h-40zm328-63.632812c.011719 14.59375-2.773438 29.054687-8.199219 42.601562-5.433593 13.492188-5.433593 28.5625 0 42.054688.988281 2.464843.6875 5.261718-.800781 7.460937-1.492188 2.199219-3.976562 3.519531-6.632812 3.515625h-256.367188v-40h120c61.828125-.066406 111.933594-50.171875 112-112 0-3.777344-.199219-7.511719-.566406-11.199219-.128906-1.257812-.378906-2.472656-.546875-3.71875-.320313-2.402343-.621094-4.800781-1.09375-7.160156-.289063-1.449219-.703125-2.851563-1.058594-4.28125-.503906-2.089844-.980469-4.191406-1.597656-6.230469-.449219-1.496094-1.015625-2.929687-1.527344-4.394531-.671875-1.910156-1.320313-3.832031-2.097656-5.703125-.609375-1.480469-1.320313-2.894531-1.992188-4.34375-.800781-1.777344-1.597656-3.550781-2.542969-5.273438-.761718-1.429687-1.601562-2.808593-2.402343-4.199218-.964844-1.65625-1.925781-3.304688-2.972657-4.902344-.90625-1.363281-1.875-2.664062-2.824218-4-1.105469-1.53125-2.210938-3.058594-3.386719-4.523438-1.03125-1.285156-2.117187-2.511718-3.199219-3.742187-1.230468-1.40625-2.472656-2.800781-3.765625-4.144531-1.144531-1.191406-2.347656-2.320313-3.539062-3.457032-1.351563-1.277343-2.71875-2.542968-4.125-3.75-1.257813-1.074218-2.546875-2.105468-3.851563-3.121093-1.46875-1.152344-2.949218-2.277344-4.476562-3.351563-1.355469-.960937-2.722656-1.863281-4.121094-2.757812-1.601562-1.019532-3.199219-1.996094-4.800781-2.929688-1.441407-.800781-2.886719-1.601562-4.359375-2.398437-1.679688-.867188-3.382813-1.683594-5.113282-2.464844-1.511718-.6875-3.03125-1.34375-4.574218-1.960937-1.777344-.710938-3.578125-1.359376-5.402344-1.984376-1.597656-.535156-3.140625-1.054687-4.75-1.527343-1.855469-.535157-3.746094-1.007813-5.648438-1.457031-1.601562-.382813-3.257812-.757813-4.910156-1.070313-1.953125-.367187-3.921875-.640625-5.898437-.90625-1.671875-.222656-3.335938-.453125-5.03125-.597656-.601563-.058594-1.183594-.167969-1.792969-.21875v-40h1.152344c1.929687.113281 3.808594.394531 5.710937.578125 3.089844.304687 6.183594.582031 9.234375 1.0625 2.261719.359375 4.472656.890625 6.695313 1.351562 2.542969.523438 5.097656 1 7.601562 1.648438 2.78125.730468 5.503907 1.601562 8.222657 2.503906 1.832031.585938 3.6875 1.128906 5.496093 1.785156 3.09375 1.136719 6.113281 2.398438 9.113281 3.761719 1.367188.597656 2.742188 1.160156 4.09375 1.796875 3.113282 1.488281 6.136719 3.128906 9.128907 4.800781 1.199219.679688 2.398437 1.328125 3.589843 2.039063 2.90625 1.746094 5.722657 3.625 8.496094 5.554687 1.242188.863281 2.488282 1.726563 3.714844 2.632813 2.582031 1.910156 5.09375 3.925781 7.550781 6 1.328125 1.125 2.640625 2.269531 3.945313 3.445312 2.3125 2.089844 4.574218 4.242188 6.75 6.464844 1.191406 1.214844 2.335937 2.464844 3.472656 3.703125 2.238281 2.402344 4.441406 4.921875 6.511719 7.496094.800781.96875 1.503906 1.96875 2.265625 2.953125 2.261718 2.960937 4.46875 5.96875 6.519531 9.09375.367187.554687.6875 1.121094 1.039063 1.683594 2.265624 3.558593 4.441406 7.199218 6.398437 10.941406l.128906.265625c6.648438 12.726562 11.445313 26.339843 14.25 40.421875.0625.328125.085938.664062.152344.992187.855469 4.457031 1.550781 8.976563 2.007813 13.601563.488281 4.984375.75 10.023437.75 15.113281zm0 0"/></svg>